<?xml version="1.0" encoding="UTF-8"?><svg id="Layer_2" xmlns="http://www.w3.org/2000/svg" viewBox="0 0 75 43.55"><defs><style>.cls-1{fill:#b40c0c;}</style></defs><g id="Layer_1-2"><path class="cls-1" d="M38.61,6.2h-.12l.83-5.49h31.99v.24l-8.29,15.36c-.22.41-.21.91.04,1.29.54.84,8.5,2.04,11.95,2.04h-30.26l3.89-.63c.89-.45,1.66-1.12,2.21-1.96,3.12-4.83,6.25-10.59,9.37-15.25h-2.63c-8.59,0-14.43,1.37-18.97,4.41Z"/><path class="cls-1" d="M71.54,36.93l-1.25,5.91h-32.88v-.24l8.72-16.13c.24-.42.24-.92.01-1.34-.36-.68-1.12-1.55-2.72-1.55h28.95c-3.28,0-12.49.82-13.86,1.49-.87.43-1.58,1.13-2.04,1.99l-7.96,14.71h3.58c8.59,0,14.08-1.2,19.33-4.83h.12Z"/><path class="cls-1" d="M36.84,19.63H0c1.99,0,3.63-.92,4.76-1.82,1.03-.82,1.58-2.13,1.39-3.42-.09-.57-.13-1.17-.13-1.8C6.03,5.37,11.87,0,20.95,0c5.49,0,10.67,1.97,12.53,2.99l-1.2,4.59c-2.62-3.04-6.8-6.63-12.11-6.63s-8.07,3.34-8.07,7.17c0,4.88,4.72,7.09,9.08,9l1.13.49s.03.01.09.03c.84.22,10.58,2,14.43,2Z"/><path class="cls-1" d="M34.86,26.12c.46,1.22.71,2.62.71,4.18,0,7.04-5.43,13.25-15.53,13.25-5.78,0-12.7-2.03-14.5-2.99l1.38-5.13c2.68,4.24,8.71,7.17,13.89,7.17,5.62,0,8.72-3.46,8.72-7.64,0-5.37-5.38-7.63-9.55-9.49h0c-1.03-.43-2.1-.75-3.2-.93-5.52-.89-13.5-.97-13.5-.97h35.03c-.84.08-1.99.37-2.79,1.32-.34.41-.55.84-.67,1.22Z"/></g></svg>